<?xml version="1.0" standalone="no"?>
<!DOCTYPE svg PUBLIC "-//W3C//DTD SVG 20010904//EN"
 "http://www.w3.org/TR/2001/REC-SVG-20010904/DTD/svg10.dtd">
<svg version="1.0" xmlns="http://www.w3.org/2000/svg"
 width="808.000000pt" height="808.000000pt" viewBox="0 0 808.000000 808.000000"
 preserveAspectRatio="xMidYMid meet">
<metadata>
Created by potrace 1.14, written by Peter Selinger 2001-2017
</metadata>
<g transform="translate(0.000000,808.000000) scale(0.100000,-0.100000)"
fill="#000000" stroke="none">
<path d="M2498 8075 c-2 -1 -32 -6 -68 -10 -36 -4 -76 -8 -90 -10 -26 -3 -125
-21 -170 -31 -14 -3 -36 -7 -49 -10 -14 -3 -28 -7 -31 -9 -4 -2 -22 -7 -40
-10 -128 -23 -434 -145 -615 -245 -33 -18 -70 -38 -82 -44 -13 -6 -23 -14 -23
-18 0 -5 -5 -8 -11 -8 -15 0 -186 -118 -279 -193 -106 -86 -304 -287 -380
-387 -67 -87 -150 -206 -150 -214 0 -3 -11 -21 -25 -41 -28 -42 -136 -257
-139 -279 -1 -8 -7 -20 -13 -27 -8 -11 -22 -49 -27 -79 -1 -3 -4 -9 -7 -15 -7
-11 -48 -143 -73 -235 -28 -102 -60 -290 -73 -430 -13 -129 -7 -583 7 -616 0
-1 1200 5 1732 9 319 3 328 2 322 -16 -7 -21 -100 -162 -124 -188 -8 -8 -34
-39 -58 -67 -197 -235 -478 -409 -777 -483 -73 -18 -100 -23 -205 -34 -108
-12 -305 -3 -410 20 -14 3 -41 8 -60 11 -19 3 -43 10 -53 15 -9 5 -17 8 -17 5
0 -2 -20 2 -44 9 l-44 13 -1 -156 c-8 -1224 -17 -2497 -21 -3039 -1 -89 1
-166 4 -172 5 -8 288 -199 352 -238 46 -28 242 -143 279 -164 60 -33 392 -199
400 -199 3 0 36 -14 73 -31 37 -17 76 -35 87 -39 11 -4 36 -15 57 -24 20 -9
39 -16 43 -16 4 0 21 -6 38 -14 32 -14 178 -67 292 -105 49 -16 221 -66 260
-76 6 -1 17 -4 25 -8 27 -9 104 -28 130 -31 14 -1 31 -5 37 -9 6 -4 27 -8 47
-9 20 -2 36 -6 36 -11 0 -4 3 -6 8 -5 6 2 29 -2 117 -18 6 -1 12 -3 15 -4 3
-1 14 -3 25 -5 11 -1 34 -5 50 -8 26 -5 102 -16 225 -33 19 -2 49 -7 65 -9 34
-6 90 -11 238 -22 206 -15 868 -7 979 12 13 2 48 6 78 9 74 7 149 16 185 21
17 2 53 7 80 11 28 3 59 8 70 11 11 2 27 5 35 5 8 0 49 6 90 14 41 7 86 15
100 18 14 2 36 7 50 10 14 3 36 8 50 10 21 4 168 37 220 50 96 24 149 38 170
46 14 6 34 11 45 13 11 2 27 7 35 10 8 3 47 15 85 27 109 33 259 88 380 137
107 44 435 201 445 213 3 3 20 12 38 19 17 8 32 17 32 22 0 5 5 9 11 9 13 0
308 195 351 232 15 13 41 34 59 48 18 14 49 38 68 55 41 34 298 291 321 321 8
10 31 39 50 64 19 24 40 50 46 57 6 6 38 51 70 100 32 48 62 89 67 91 4 2 7 8
7 13 0 5 10 26 23 47 45 71 162 311 172 352 0 3 16 43 34 90 18 46 35 92 36
102 2 9 9 27 16 40 7 13 12 24 10 26 -1 1 6 28 16 60 9 31 18 62 19 67 1 6 13
57 27 115 15 58 29 123 32 145 4 22 8 51 11 65 5 24 7 42 21 160 17 143 7 504
-16 604 -6 22 -9 42 -9 45 0 3 -1 8 -2 11 -1 3 -3 14 -4 25 -4 30 -38 159 -44
170 -4 6 -8 18 -9 28 -4 26 -68 178 -105 251 -31 61 -122 207 -145 236 -178
214 -286 318 -438 420 -27 19 -51 37 -53 42 -2 4 -7 8 -12 8 -4 0 -37 17 -72
39 -35 21 -96 55 -136 75 -41 20 -72 43 -72 51 0 8 4 15 9 15 8 0 55 47 172
170 53 56 171 211 237 310 41 63 84 127 93 142 65 95 232 472 254 571 2 12 16
58 29 102 13 45 26 94 29 110 3 17 10 51 16 76 6 25 13 61 15 80 3 19 7 50 10
69 39 242 39 625 1 830 -3 14 -8 45 -11 70 -3 24 -9 47 -14 50 -9 6 -406 8
-2178 15 l-833 2 3 -388 c2 -214 2 -389 1 -389 -1 0 -23 42 -49 93 -57 114
-96 181 -106 185 -4 2 -8 8 -8 13 0 14 -87 141 -160 235 -148 188 -417 423
-580 506 -14 7 -27 15 -30 19 -6 7 -196 99 -206 99 -3 0 -20 7 -37 14 -92 43
-322 104 -452 121 -28 3 -64 9 -80 11 -33 6 -441 14 -447 9z m382 -370 c30 -4
78 -11 105 -17 28 -5 61 -11 75 -14 14 -3 33 -7 42 -10 9 -3 26 -7 38 -9 22
-4 81 -22 115 -35 11 -5 38 -15 60 -23 332 -123 641 -348 831 -602 32 -44 62
-81 67 -83 4 -2 7 -7 7 -12 0 -4 17 -37 39 -72 107 -176 209 -469 226 -653 2
-16 4 -30 5 -30 1 0 4 -29 8 -65 11 -127 4 -407 -12 -496 -2 -11 -7 -39 -11
-64 -7 -44 -10 -56 -20 -102 -3 -13 -7 -34 -10 -48 -31 -155 -126 -392 -230
-574 -50 -86 -59 -100 -67 -106 -4 -3 -20 -24 -35 -47 -113 -168 -313 -339
-510 -437 -78 -39 -262 -112 -303 -121 -8 -2 -54 -17 -102 -34 -49 -16 -88
-28 -88 -26 0 13 -170 -70 -192 -94 -116 -129 234 -407 497 -395 87 4 170 19
225 41 8 3 20 7 27 9 38 8 263 129 306 164 7 6 48 37 92 70 154 115 335 288
335 321 0 5 4 9 8 9 13 0 125 175 179 280 86 165 182 423 209 563 2 10 6 27 9
37 6 18 12 44 21 88 23 116 42 224 49 281 4 30 8 62 10 72 2 10 7 53 11 96 3
43 8 92 10 108 14 143 23 598 13 653 -4 17 -3 35 2 38 5 3 7 9 4 14 -3 5 -7
53 -10 107 -6 113 -13 209 -20 273 -3 25 -7 72 -10 105 -7 74 -12 118 -19 170
-3 22 -8 61 -11 87 l-6 48 636 -4 c350 -2 638 -6 641 -9 3 -2 19 -1 36 2 18 4
56 4 86 1 29 -4 55 -3 57 0 2 3 30 3 62 0 32 -3 257 -5 500 -5 501 0 444 10
447 -82 1 -23 4 -45 8 -48 3 -3 2 -22 -2 -41 -4 -19 -5 -36 -1 -38 3 -2 5 -21
5 -43 -3 -61 -14 -215 -19 -243 -2 -14 -7 -50 -11 -80 -4 -30 -8 -64 -9 -75
-2 -16 -19 -86 -50 -215 -1 -3 -7 -25 -15 -50 -7 -25 -15 -49 -16 -55 -9 -36
-50 -141 -56 -143 -5 -2 -8 -10 -8 -18 0 -8 -4 -22 -9 -32 -5 -9 -28 -55 -52
-102 -55 -110 -57 -114 -103 -185 -114 -177 -277 -357 -441 -486 -55 -44 -105
-83 -111 -88 -30 -24 -209 -127 -284 -163 l-85 -41 82 -32 c46 -17 86 -34 89
-38 4 -4 15 -7 24 -7 10 0 23 -7 30 -15 7 -9 15 -13 18 -10 5 5 185 -88 257
-133 22 -14 42 -26 45 -26 3 0 12 -6 20 -12 8 -7 60 -46 115 -88 180 -134 328
-296 442 -481 40 -64 111 -199 118 -225 1 -3 5 -14 9 -25 27 -71 38 -102 42
-115 2 -8 10 -40 19 -70 9 -30 20 -77 25 -105 5 -27 11 -61 14 -75 19 -103 25
-314 12 -450 -11 -121 -66 -385 -93 -450 -3 -8 -7 -19 -8 -25 -6 -25 -46 -135
-64 -178 -11 -26 -21 -51 -22 -55 -6 -30 -185 -340 -209 -362 -3 -3 -25 -32
-50 -65 -24 -33 -49 -65 -55 -71 -5 -6 -35 -40 -65 -74 -30 -35 -60 -68 -66
-74 -6 -6 -47 -45 -90 -86 -44 -42 -101 -93 -129 -115 -27 -22 -55 -44 -61
-50 -6 -5 -22 -18 -35 -28 -164 -119 -205 -147 -215 -147 -6 0 -17 -6 -23 -14
-11 -13 -124 -82 -211 -127 -25 -13 -47 -27 -50 -30 -6 -6 -246 -124 -335
-164 -33 -15 -83 -38 -112 -51 -28 -13 -58 -24 -65 -24 -8 0 -18 -4 -23 -9
-35 -32 -508 -185 -670 -217 -26 -5 -96 -20 -137 -29 -13 -3 -39 -7 -58 -10
-19 -3 -46 -7 -60 -10 -13 -2 -42 -7 -65 -10 -22 -4 -51 -8 -65 -10 -63 -9
-204 -23 -320 -31 -183 -12 -540 -7 -725 11 -75 7 -205 21 -280 31 -27 3 -61
7 -75 9 -14 2 -43 6 -65 10 -22 3 -69 11 -105 16 -36 6 -74 12 -85 14 -11 2
-58 11 -105 20 -47 9 -96 19 -110 21 -198 36 -682 187 -895 279 -16 7 -79 34
-140 60 -116 50 -319 149 -420 205 -96 53 -270 153 -275 159 -3 4 -14 11 -25
17 -20 11 -20 22 -20 690 0 373 2 741 5 817 3 75 2 137 -2 137 -4 0 -5 6 -2
13 2 7 6 198 8 423 2 225 4 411 5 412 1 2 17 -16 37 -40 195 -234 261 -308
388 -433 175 -172 295 -275 476 -405 30 -22 60 -43 65 -48 6 -4 55 -36 110
-70 55 -34 105 -65 111 -69 24 -18 274 -146 354 -181 222 -99 574 -205 820
-248 14 -2 48 -9 75 -14 28 -5 73 -12 100 -15 28 -4 61 -8 75 -11 14 -2 52 -6
85 -9 33 -3 78 -8 100 -10 56 -6 329 -6 395 0 76 7 130 14 160 20 14 3 43 8
65 11 22 2 67 12 100 20 33 9 65 17 72 18 7 1 16 5 19 9 4 4 18 7 31 7 13 0
23 5 23 12 0 6 3 9 6 5 17 -17 289 119 389 195 380 290 523 563 389 744 -93
126 -242 203 -384 199 -91 -3 -153 -37 -254 -143 -328 -342 -411 -412 -606
-510 -238 -119 -434 -171 -675 -177 -141 -3 -218 5 -337 35 -74 18 -251 84
-274 101 -6 5 -34 21 -62 36 -181 97 -401 297 -537 487 -11 16 -26 34 -32 41
-7 8 -13 16 -13 18 0 3 -20 39 -45 81 -24 42 -42 76 -39 76 4 0 2 6 -4 13 -19
23 -72 171 -91 253 -19 83 -22 277 -6 354 30 147 138 309 274 412 31 24 58 45
61 48 7 7 94 62 150 94 25 14 142 74 260 134 118 60 239 124 268 141 29 17 57
31 62 31 4 0 10 3 12 8 2 4 32 27 68 52 275 189 404 431 404 760 0 168 -32
311 -97 434 -31 58 -147 186 -169 186 -6 0 -19 6 -27 13 -58 49 -219 80 -294
57 -63 -19 -97 -34 -97 -42 0 -5 -6 -8 -14 -8 -7 0 -33 -22 -57 -48 -65 -71
-79 -91 -79 -107 0 -8 -3 -15 -8 -15 -22 0 -79 -204 -77 -280 2 -66 16 -163
27 -176 5 -7 8 -16 7 -20 -7 -29 78 -185 156 -288 41 -55 75 -101 75 -102 0
-3 -219 -5 -1315 -7 l-890 -2 2 90 c2 103 10 196 23 275 5 30 11 71 14 90 16
106 89 360 133 460 25 57 111 232 135 275 26 45 118 183 141 211 9 11 32 39
52 64 159 197 425 405 689 537 106 53 246 113 246 106 0 -3 6 -1 13 4 11 9
128 50 167 58 8 2 47 11 85 20 99 24 109 25 265 44 68 8 305 6 380 -4z"/>
<path d="M2595 7522 c-2 -2 -34 -5 -72 -8 -37 -2 -79 -6 -93 -9 -14 -3 -38 -7
-55 -9 -16 -3 -52 -10 -80 -16 -27 -6 -60 -14 -72 -16 -12 -2 -66 -20 -120
-39 -54 -20 -102 -37 -108 -39 -89 -28 -365 -177 -454 -245 -20 -15 -62 -47
-93 -70 -112 -83 -276 -260 -365 -391 -31 -46 -123 -199 -123 -205 0 -2 -18
-41 -39 -87 -71 -150 -141 -380 -157 -513 -4 -27 -8 -53 -11 -57 -2 -4 -6 -39
-9 -78 l-6 -71 816 3 c449 2 816 7 816 11 0 4 -9 25 -20 47 -11 22 -20 48 -20
59 0 11 -4 22 -9 25 -5 3 -11 18 -14 33 -3 16 -7 37 -10 48 -26 106 -23 255 8
361 19 68 65 187 74 194 4 3 19 26 34 52 56 97 175 197 283 238 185 69 392 32
574 -103 114 -85 189 -187 255 -352 10 -25 7 -13 32 -120 29 -122 34 -163 33
-280 -1 -109 -4 -155 -14 -200 -3 -17 -8 -44 -11 -61 -7 -46 -46 -167 -57
-181 -6 -7 -8 -13 -4 -13 7 0 -43 -94 -92 -170 -60 -92 -214 -238 -342 -322
-63 -41 -135 -86 -160 -99 -25 -13 -48 -28 -51 -32 -3 -5 -8 -8 -10 -6 -9 6
-457 -229 -537 -281 -250 -166 -336 -356 -280 -620 10 -47 19 -89 21 -95 34
-95 98 -227 130 -270 4 -5 31 -42 60 -82 80 -110 196 -225 327 -327 56 -43
199 -121 294 -160 39 -16 144 -46 181 -52 11 -1 37 -5 58 -9 105 -18 290 -6
422 26 62 15 70 17 70 19 0 1 7 3 15 5 8 3 22 6 30 8 8 2 24 8 35 12 11 4 52
21 91 36 39 15 88 38 110 50 21 12 48 27 59 33 26 15 109 69 115 76 3 3 19 16
35 29 47 36 152 139 250 246 50 54 103 110 119 124 16 14 35 32 43 40 76 74
215 124 338 122 158 -2 355 -91 457 -206 50 -56 78 -93 78 -104 0 -6 3 -11 8
-11 11 0 52 -112 58 -156 8 -64 5 -141 -7 -171 -6 -15 -10 -30 -10 -33 3 -19
-41 -130 -51 -130 -5 0 -8 -6 -8 -13 0 -28 -113 -177 -201 -266 -40 -41 -166
-152 -191 -169 -13 -9 -25 -19 -28 -22 -31 -37 -352 -214 -409 -225 -11 -2
-28 -8 -38 -13 -27 -15 -222 -67 -288 -78 -16 -3 -52 -9 -80 -14 -122 -24
-492 -33 -650 -17 -38 4 -90 9 -115 12 -25 3 -56 7 -70 10 -14 3 -41 7 -60 9
-44 6 -106 16 -134 22 -11 3 -31 7 -43 10 -13 2 -33 6 -45 9 -13 3 -43 9 -68
14 -25 6 -90 22 -145 36 -55 14 -108 28 -118 30 -35 8 -312 104 -352 121 -22
10 -42 19 -45 19 -103 34 -585 290 -610 325 -3 4 -16 13 -30 20 -23 13 -159
108 -170 120 -3 3 -23 18 -45 35 -109 80 -261 214 -401 353 -60 60 -84 79 -85
65 -1 -17 -6 -815 -9 -1531 -1 -167 0 -305 2 -306 62 -46 400 -223 578 -303
25 -11 66 -30 92 -42 26 -11 50 -21 53 -21 3 0 27 -9 53 -21 63 -28 73 -32
172 -67 162 -58 292 -99 420 -133 19 -5 42 -11 50 -14 29 -8 196 -46 245 -55
28 -6 61 -13 75 -16 57 -12 279 -48 364 -59 21 -2 55 -7 75 -9 209 -29 391
-40 661 -40 205 0 363 6 465 19 17 2 55 7 85 10 69 8 95 12 145 20 88 14 95
16 190 35 28 6 60 12 73 15 13 2 32 7 42 10 10 3 27 7 37 9 148 30 494 153
731 262 29 13 57 24 62 24 6 0 10 5 10 10 0 6 7 10 15 10 15 0 275 127 285
139 3 3 40 24 82 46 43 22 78 43 78 48 0 4 5 7 10 7 13 0 194 120 198 132 2 4
9 8 16 8 7 0 23 10 35 21 13 12 43 37 67 55 76 58 106 85 224 204 121 120 200
218 293 360 54 83 161 290 150 290 -3 0 2 11 11 25 9 13 17 32 19 42 1 10 5
23 8 28 7 11 59 179 64 204 2 9 4 16 5 16 1 0 3 9 5 19 2 11 11 51 19 90 9 39
17 92 19 117 2 25 6 50 10 55 6 11 1 356 -6 394 -3 14 -8 41 -12 60 -12 68
-37 156 -66 237 -26 71 -46 113 -126 264 -7 15 -20 32 -28 39 -8 7 -15 17 -15
23 0 15 -107 145 -180 218 -36 36 -101 93 -145 127 -44 34 -86 67 -92 72 -7 6
-30 20 -50 32 -21 12 -40 25 -43 29 -7 9 -235 125 -305 155 -85 36 -179 71
-215 79 -3 1 -30 9 -61 19 -68 20 -71 21 -219 52 -14 2 -38 7 -55 9 -16 2 -41
6 -55 9 -14 3 -68 12 -120 21 -52 10 -102 18 -110 20 -8 2 -22 4 -30 5 -13 2
49 25 91 35 188 41 491 134 604 185 33 15 62 27 65 26 3 -1 19 9 37 22 17 12
34 22 37 22 4 0 36 18 72 40 36 22 68 40 71 40 2 0 11 6 18 13 31 27 44 37 51
37 10 0 169 135 227 194 114 115 232 268 290 376 45 83 107 208 107 215 0 4 7
21 14 38 21 46 66 177 60 177 -3 0 0 8 5 18 6 11 12 30 15 43 3 13 10 42 15
64 14 55 23 105 26 135 1 14 3 25 5 25 5 0 23 203 24 285 l1 75 -110 2 c-60 1
-110 3 -110 3 0 1 -515 4 -1510 10 -154 1 -291 1 -303 1 -22 -1 -23 -4 -18
-43 4 -24 9 -72 12 -108 3 -36 7 -78 9 -95 24 -167 25 -983 1 -1100 -2 -11 -7
-56 -10 -100 -4 -44 -9 -87 -11 -95 -2 -8 -7 -37 -10 -64 -3 -27 -7 -59 -10
-70 -2 -12 -7 -37 -10 -56 -2 -19 -7 -44 -9 -55 -2 -11 -11 -56 -21 -100 -38
-186 -103 -402 -162 -539 -19 -44 -36 -85 -38 -91 -1 -5 -6 -20 -10 -32 -4
-13 -11 -23 -16 -23 -5 0 -9 -7 -9 -15 0 -8 -13 -37 -30 -65 -16 -28 -30 -53
-30 -56 0 -10 -135 -212 -173 -259 -68 -83 -178 -193 -252 -253 -38 -31 -75
-61 -82 -67 -171 -140 -449 -290 -594 -319 -13 -3 -46 -9 -74 -15 -50 -10
-251 -8 -292 3 -13 3 -31 8 -40 10 -89 22 -221 91 -304 160 -66 54 -139 136
-139 155 0 6 -4 11 -9 11 -9 0 -35 58 -57 128 -8 26 -9 42 -3 42 6 0 7 6 1 16
-10 18 5 91 28 134 20 39 94 105 142 128 79 37 203 87 203 81 0 -3 189 58 270
88 76 28 209 90 265 124 94 57 218 168 298 268 20 25 39 48 42 51 11 10 86
126 112 175 124 224 198 452 235 721 8 60 9 412 1 474 -72 547 -399 993 -903
1230 -49 23 -98 46 -107 51 -10 5 -26 9 -36 9 -10 0 -22 4 -28 9 -25 25 -288
86 -414 96 -84 7 -211 11 -215 7z"/>
</g>
</svg>
